<?xml version="1.0" encoding="UTF-8"?>
<svg xmlns="http://www.w3.org/2000/svg" viewBox="0 0 512 512" width="512px" height="512px">
  <path fill="#D32F2F" d="M394.3,141.9c-3.1-9.1-9.8-16.4-18.5-20.2c-8.7-3.8-18.5-3.8-27.2,0c-1.5-13.9-7.6-26.9-17.6-36.9
    c-12.5-12.5-29.1-19.4-46.8-19.4c-10.7,0-21.1,2.6-30.5,7.5c-14-17.8-35.5-28.1-58.3-28.1c-41.4,0-75,33.6-75,75v68.6
    c-25.6,18.6-41,48.2-41,80.7c0,55.7,45.3,101,101,101c22.7,0,43.7-7.5,60.5-20.2c16.2,13.4,37,21.5,59.5,21.5
    c52.2,0,94.4-42.3,94.4-94.4c0-26.9-11.5-52.3-31.5-70.1C380.9,189.2,400.9,160.8,394.3,141.9z"/>
  <path fill="#B71C1C" d="M195.4,69.8c-15.8,0-30.7,6.1-42,17.4c-11.3,11.3-17.4,26.2-17.4,42v68.6c-25.6,18.6-41,48.2-41,80.7
    c0,55.7,45.3,101,101,101c10.1,0,19.9-1.5,29.1-4.3c-48.6-4.7-86.7-45.7-86.7-95.5c0-30.3,14.2-57.8,36.5-75.6V120
    c0-30.9,25.1-56,56-56c4.7,0,9.3,0.6,13.7,1.7C231.1,73.4,214,69.8,195.4,69.8z"/>
  <path fill="#EEEEEE" d="M308.7,270.1h-20c-11,0-20-9-20-20s9-20,20-20h20c11,0,20,9,20,20S319.8,270.1,308.7,270.1z"/>
</svg>